<!-- Generated by IcoMoon.io -->
<svg version="1.1" xmlns="http://www.w3.org/2000/svg" width="1809" height="1024" viewBox="0 0 1809 1024">
<title></title>
<g id="icomoon-ignore">
</g>
<path d="M457.387 762.88c3.413 5.12 5.12 11.947 5.12 17.067l-1.707 11.947-6.827 8.533c-8.533 6.827-18.773 8.533-29.013 8.533h-49.493v-105.813h47.787c10.24 0 20.48 1.707 27.307 6.827l6.827 8.533 3.413 11.947c0 5.12-1.707 11.947-6.827 17.067l-13.653 6.827c6.827 0 11.947 5.12 17.067 8.533zM399.36 747.52h20.48c3.413 0 8.533 0 11.947-3.413l3.413-5.12 1.707-5.12v-5.12l-5.12-5.12c-3.413-3.413-8.533-3.413-13.653-3.413h-18.773v27.307zM433.493 788.48l5.12-5.12v-11.947l-3.413-5.12c-5.12-3.413-10.24-3.413-15.36-3.413h-20.48v29.013h20.48c5.12 0 10.24 0 15.36-3.413zM556.373 808.96l-27.307-40.96h-10.24v40.96h-23.893v-105.813h44.373c11.947 0 22.187 3.413 30.72 8.533 6.827 6.827 10.24 13.653 10.24 22.187s-1.707 17.067-6.827 22.187c-5.12 5.12-13.653 8.533-20.48 10.24l29.013 42.667h-25.6zM518.827 752.64h18.773c13.653 0 20.48-5.12 20.48-15.36l-1.707-6.827c-0.866-1.981-2.014-3.677-3.418-5.124l0.004 0.004-15.36-5.12h-18.773v34.133zM682.667 788.48h-46.080l-8.533 20.48h-23.893l42.667-104.107h25.6l42.667 104.107h-23.893l-8.533-20.48zM675.84 771.413l-17.067-44.373-17.067 44.373h34.133zM841.387 808.96h-22.187l-51.2-71.68v71.68h-23.893v-105.813h22.187l51.2 71.68v-71.68h23.893v105.813zM972.8 785.067c-3.413 6.827-11.947 13.653-20.48 17.067-10.24 5.12-20.48 6.827-32.427 6.827h-40.96v-105.813h42.667c11.947 0 22.187 1.707 34.133 6.827 6.827 3.413 15.36 10.24 18.773 17.067 4.588 8.116 7.291 17.822 7.291 28.16s-2.703 20.044-7.442 28.45l0.151-0.29zM947.2 781.653c6.246-6.687 10.080-15.696 10.080-25.6s-3.835-18.913-10.101-25.622l0.020 0.022c-8.533-6.827-17.067-10.24-29.013-8.533h-17.067v68.267h17.067c10.24 0 20.48-3.413 29.013-8.533zM698.027 116.053s296.96 102.4 290.133 250.88v252.587s-296.96-102.4-290.133-252.587v-250.88zM1254.4 559.787c56.32-34.133 119.467-56.32 187.733-63.147v-78.507c-77.604 27.424-141.783 76.727-186.933 140.463l-0.8 1.191z"></path>
<path d="M1220.267 583.68c46.080-85.333 126.293-150.187 221.867-182.613v-226.987s-423.253 146.773-414.72 358.4v358.4l49.493-18.773v-34.133c10.24-98.987 61.44-189.44 143.36-254.293z"></path>
<path d="M1179.307 716.8c3.413-23.893 6.827-49.493 15.36-73.387-53.687 56.631-87.605 132.472-90.439 216.196l-0.015 0.551 81.92-39.253c-6.827-34.133-10.24-68.267-6.827-102.4zM1196.373 716.8c-0.923 9.182-1.45 19.845-1.45 30.63 0 22.989 2.392 45.42 6.942 67.056l-0.372-2.113c116.053-63.147 245.76-162.133 240.64-279.893v-10.24c-81.92 8.533-160.427 40.96-220.16 93.867-13.653 34.133-22.187 68.267-25.6 102.4z"></path>
</svg>
