<!-- Generated by IcoMoon.io -->
<svg version="1.1" xmlns="http://www.w3.org/2000/svg" width="1365" height="1024" viewBox="0 0 1365 1024">
<title>twitter-icon</title>
<g id="icomoon-ignore">
</g>
<path d="M1237.333 0h-1109.333c-68.267 0-128 59.733-128 128v768c0 68.267 59.733 128 128 128h1109.333c68.267 0 128-59.733 128-128v-768c0-68.267-59.733-128-128-128zM1237.333 85.333h17.067l-571.733 494.933-571.733-494.933h1126.4zM1237.333 938.667h-1109.333c-23.564 0-42.667-19.103-42.667-42.667v0-716.8l571.733 494.933c7.042 5.327 15.947 8.533 25.6 8.533s18.558-3.206 25.707-8.611l-0.107 0.078 571.733-503.467v716.8c0 25.6-17.067 42.667-42.667 42.667z"></path>
</svg>
