<!-- Generated by IcoMoon.io -->
<svg version="1.1" xmlns="http://www.w3.org/2000/svg" width="1809" height="1024" viewBox="0 0 1809 1024">
<title></title>
<g id="icomoon-ignore">
</g>
<path d="M621.227 837.973l5.12 3.413-10.24 6.827-15.36 3.413c-5.12 0-8.533 0-13.653-3.413l-10.24-5.12-6.827-10.24c-1.576-3.787-2.491-8.187-2.491-12.8s0.915-9.013 2.574-13.027l-0.083 0.227 6.827-10.24c3.413-1.707 6.827-5.12 11.947-5.12 4.078-1.365 8.774-2.153 13.653-2.153s9.575 0.788 13.967 2.243l-0.313-0.090 10.24 5.12-3.413 3.413h-5.12l-1.707-1.707c-3.671-2.155-8.085-3.428-12.796-3.428-0.301 0-0.601 0.005-0.9 0.016l0.043-0.001-10.24 1.707-8.533 5.12c0 3.413-3.413 5.12-5.12 8.533v20.48l5.12 6.827 8.533 5.12h15.36c4.604-0.511 8.701-2.361 11.978-5.146l-0.032 0.026h1.707zM728.747 819.2l-1.707 13.653-8.533 10.24-10.24 5.12c-8.533 3.413-18.773 3.413-29.013 0-3.91-1.208-7.312-2.954-10.333-5.186l0.093 0.066-6.827-10.24c-1.576-3.787-2.491-8.187-2.491-12.8s0.915-9.013 2.574-13.027l-0.083 0.227c0-3.413 3.413-6.827 6.827-10.24l10.24-5.12c10.24-3.413 20.48-3.413 29.013 0l10.24 5.12c6.312 5.356 10.292 13.296 10.292 22.165 0 0.608-0.019 1.212-0.056 1.811l0.004-0.082zM718.507 819.2v-8.533c-2.033-6.558-7.095-11.62-13.508-13.614l-0.145-0.039c-3.061-0.997-6.583-1.572-10.24-1.572s-7.179 0.575-10.482 1.64l0.242-0.067-8.533 5.12-5.12 8.533v18.773c2.033 6.558 7.095 11.62 13.508 13.614l0.145 0.039h20.48l6.827-5.12c3.413-1.707 5.12-5.12 5.12-8.533l1.707-8.533zM802.133 831.147v1.707l1.707-1.707v-3.413l25.6-37.547h11.947v59.733h-8.533v-47.787l-23.893 37.547-3.413 1.707h-3.413l-29.013-39.253v49.493h-8.533v-59.733h10.24l23.893 37.547 1.707 3.413zM890.88 827.733v22.187h-8.533v-59.733h32.427c3.413 0 5.12 3.413 8.533 5.12l3.413 5.12 1.707 8.533v6.827l-6.827 6.827-6.827 3.413-11.947 1.707h-11.947zM890.88 820.907h18.773l5.12-3.413 3.413-3.413v-11.947c0-1.707 0-3.413-3.413-5.12l-11.947-3.413h-11.947v25.6zM1017.173 849.92h-10.24l-6.827-17.067h-32.427l-6.827 17.067h-10.24l27.307-59.733h10.24l29.013 59.733zM971.093 827.733h25.6l-10.24-23.893-3.413-6.827v6.827l-11.947 23.893zM1058.133 790.187l40.96 46.080v-46.080h8.533v59.733h-6.827l-42.667-47.787v46.080h-8.533v-59.733h6.827zM1175.893 826.027v23.893h-8.533v-23.893l-27.307-35.84h11.947l17.067 25.6c0.614 1.408 1.198 3.114 1.652 4.871l0.055 0.249 1.707-3.413 1.707-1.707 17.067-23.893v-1.707h10.24l-23.893 35.84zM797.013 687.787h13.653c61.892-23.933 113.351-63.308 151.271-113.487l0.623-0.86c37.547-51.2 56.32-109.227 54.613-170.667l-68.267-58.027c4.195 19.036 6.599 40.902 6.599 63.33 0 45.69-9.975 89.051-27.865 128.023l0.787-1.913c-29.059 63.732-74.086 115.886-130.066 152.766l-1.347 0.834z"></path>
<path d="M773.12 682.667v1.707c64.853-39.253 112.64-93.867 139.947-157.013s30.72-133.12 11.947-197.973l-97.28-85.333c30.78 52.544 48.957 115.707 48.957 183.114 0 99.37-39.501 189.515-103.656 255.589l0.087-0.090zM1107.627 474.453c-18.728 70.4-59.884 129.292-115.209 170.072l-0.845 0.594-56.32 34.133c49.857-12.959 93.305-35.358 130.347-65.355l-0.64 0.502c34.133-29.013 64.853-64.853 81.92-104.107l-39.253-34.133z"></path>
<path d="M1092.267 465.92l-58.027-51.2c0 58.027-18.773 112.64-52.907 160.427s-81.92 87.040-139.947 114.347l39.253-1.707c52.907-18.773 100.693-51.2 136.533-88.747 34.791-35.925 60.413-80.934 72.963-131.121l0.423-1.999zM781.653 208.213l-68.267-59.733c-60.662 19.788-111.637 55.335-149.739 101.836l-0.448 0.564c-34.783 43.068-55.959 98.387-56.32 158.639v0.081c0 63.147 23.893 122.88 68.267 170.667 44.373 51.2 107.52 85.333 175.787 102.4 63.873-65.194 103.29-154.559 103.29-253.13 0-82.976-27.932-159.429-74.906-220.468l0.629 0.851zM1247.573 455.68c0-73.387-34.133-145.067-93.867-196.267-60.746-52.175-140.34-83.94-227.354-83.94-40.82 0-80.007 6.991-116.429 19.84l2.449-0.753 414.72 361.813c13.653-32.427 20.48-66.56 20.48-100.693z"></path>
</svg>
