<!-- Generated by IcoMoon.io -->
<svg version="1.1" xmlns="http://www.w3.org/2000/svg" width="1809" height="1024" viewBox="0 0 1809 1024">
<title></title>
<g id="icomoon-ignore">
</g>
<path d="M853.333 102.4h15.36c20.48 1.707 40.96 3.413 61.44 8.533v-47.787l3.371 0.665c-29.429-6.884-59.861-11.161-92.118-12.611h-8.587c-94.366 0.189-182.679 26.165-255.946 69.973v484.693l-2.902 1.446c70.576-38.42 150.451-61.915 236.715-66.299h18.773v-51.2l-0.852 0.018c-66.803 1.736-131.118 13.468-186.881 32.409l-17.067 6.827v-380.587l8.533-3.413c56.32-25.6 117.76-42.667 180.907-42.667l-0.57 0.013c3.875-0.108 7.763-0.163 11.663-0.163s7.789 0.055 11.093 0.15h18.773zM940.373 151.893h34.133c94.582-0.254 183.353-24.894 260.431-67.958l-2.724 1.398v477.867c-72.722 42.504-160.11 67.6-253.36 67.6-34.75 0-68.686-3.485-101.477-10.125l3.263 0.552v-477.867c17.802 4.132 38.838 7.171 60.341 8.48l1.099 0.053zM1182.72 155.307l-17.067 5.12-47.787 15.36c-43.080 11.349-92.537 17.865-143.516 17.865-10.751 0-21.435-0.29-32.043-0.862l1.479 0.064h-13.653v387.413h10.24l34.133 3.413c74.017-0.142 143.881-17.778 205.723-48.99l-2.63 1.203 6.827-3.413v-377.173z"></path>
<path d="M609.28 771.413c-4.472-4.156-10.46-6.736-17.049-6.826h-11.965c-10.050 3.609-17.108 13.055-17.108 24.15 0 0.51 0.015 1.016 0.044 1.519l-0.003-0.069v64.853c0 5.12 0 10.24 3.413 13.653 0 3.413 3.413 6.827 5.12 8.533l10.24 5.12h18.773c10.093-4.161 17.068-13.923 17.068-25.315 0-0.1-0.001-0.201-0.002-0.301v0.015-6.827h-17.067v10.24l-6.827 6.827h-3.413c-0.48 0.096-1.032 0.151-1.596 0.151-2.848 0-5.37-1.395-6.92-3.539l-0.017-0.025-1.707-10.24v-61.44l1.707-8.533c1.344-3.055 4.344-5.149 7.833-5.149 0.246 0 0.49 0.010 0.731 0.031l-0.031-0.002c3.081 0.382 5.625 2.358 6.805 5.065l0.021 0.055c3.413 1.707 3.413 5.12 3.413 8.533v5.12h17.067v-6.827c-0.208-7.971-3.422-15.154-8.543-20.491l0.010 0.011zM709.973 771.413c-5.208-4.194-11.903-6.732-19.192-6.732-3.515 0-6.892 0.59-10.038 1.677l0.216-0.065c-3.413 0-6.827 1.707-8.533 5.12l-6.827 8.533-1.707 11.947v63.147l1.707 11.947c0 3.413 3.413 6.827 6.827 8.533 1.707 3.413 5.12 5.12 8.533 5.12 3.041 1.182 6.56 1.867 10.24 1.867s7.199-0.685 10.438-1.934l-0.198 0.067c3.413 0 6.827-1.707 8.533-5.12 5.265-4.988 8.541-12.030 8.541-19.837 0-0.226-0.003-0.452-0.008-0.677l0.001 0.033v-63.147l-1.707-11.947c0-3.413-3.413-6.827-6.827-8.533zM703.147 855.040c0.001 0.051 0.001 0.111 0.001 0.171 0 3.257-1.303 6.209-3.416 8.364l0.002-0.002c-2.17 2.214-5.191 3.586-8.533 3.586s-6.363-1.372-8.531-3.584l-0.002-0.002c-2.111-2.153-3.415-5.105-3.415-8.362 0-0.060 0-0.12 0.001-0.18v0.009-63.147c-0.001-0.051-0.001-0.111-0.001-0.171 0-3.257 1.303-6.209 3.416-8.364l-0.002 0.002c2.17-2.214 5.191-3.586 8.533-3.586s6.363 1.372 8.531 3.584l0.002 0.002c2.111 2.153 3.415 5.105 3.415 8.362 0 0.060 0 0.12-0.001 0.18v-0.009 63.147zM843.093 882.347v-117.76h-17.067l-20.48 63.147-22.187-63.147h-17.067v117.76h17.067v-71.68l17.067 51.2h8.533l17.067-51.2v71.68h17.067zM938.667 773.12l-10.24-6.827h-37.547v116.053h17.067v-46.080h8.533c5.12 0 10.24 0 15.36-3.413l8.533-8.533 5.12-10.24c0.905-4.618 1.423-9.929 1.423-15.36s-0.518-10.742-1.507-15.885l0.084 0.525-6.827-10.24zM930.133 807.253l-1.707 8.533-5.12 3.413c-1.28 0.344-2.75 0.542-4.267 0.542s-2.986-0.198-4.386-0.569l0.119 0.027h-6.827v-39.253h8.533l6.827 1.707 5.12 5.12v22.187zM1017.173 764.587h-13.653l-25.6 117.76h17.067l5.12-25.6h22.187l5.12 25.6h17.067l-27.307-117.76zM1001.813 841.387l8.533-42.667 8.533 42.667h-17.067zM1126.4 836.267l-27.307-71.68h-15.36v117.76h17.067v-69.973l25.6 69.973h17.067v-117.76h-17.067v71.68zM1228.8 764.587l-13.653 46.080-15.36-46.080h-17.067l23.893 68.267v49.493h17.067v-51.2l22.187-66.56h-17.067zM563.2 914.773h8.533v23.893h5.12v-23.893h8.533v-3.413h-22.187v3.413zM631.467 911.36l-10.24 27.307h5.12l1.707-6.827h11.947l1.707 6.827h6.827l-11.947-27.307h-5.12zM631.467 928.427l1.707-11.947 5.12 10.24h-8.533zM699.733 928.427h5.12v3.413l-6.827 1.707c-0.173 0.016-0.374 0.024-0.577 0.024-1.748 0-3.342-0.657-4.55-1.737l0.007 0.006-3.413-6.827c0-6.827 3.413-10.24 8.533-10.24 0.511-0.187 1.1-0.296 1.715-0.296 2.828 0 5.12 2.292 5.12 5.12 0 0.104-0.003 0.207-0.009 0.31l0.001-0.014h5.12c0-6.827-5.12-10.24-11.947-10.24l-10.24 3.413c-2.274 2.432-3.67 5.71-3.67 9.313 0 0.932 0.093 1.842 0.271 2.721l-0.015-0.088c0 3.413 0 6.827 3.413 10.24 2.402 2.149 5.591 3.462 9.086 3.462 0.406 0 0.808-0.018 1.206-0.052l-0.052 0.004c5.12 0 8.533 0 11.947-5.12v-10.24h-11.947v5.12zM768 911.36h-6.827v27.307h18.773v-5.12h-11.947v-22.187zM824.32 911.36h-5.12v27.307h5.12v-27.307zM880.64 928.427l-10.24-17.067h-5.12v27.307h5.12v-17.067l10.24 17.067h5.12v-27.307h-5.12v17.067zM931.84 926.72h13.653v-5.12h-13.653v-6.827h15.36v-3.413h-20.48v27.307h20.48v-5.12h-15.36v-6.827zM1058.133 921.6h-11.947v-10.24h-5.12v27.307h5.12v-11.947h10.24v11.947h5.12v-27.307h-3.413v10.24zM1109.333 926.72h11.947v-5.12h-11.947v-6.827h15.36v-3.413h-20.48v27.307h20.48v-5.12h-15.36v-6.827zM1177.6 926.72c5.12 0 6.827-3.413 6.827-8.533 0.016-0.173 0.024-0.374 0.024-0.577 0-1.748-0.657-3.342-1.737-4.55l0.006 0.007c-2.074-1.114-4.538-1.769-7.156-1.769-0.485 0-0.965 0.022-1.438 0.066l0.061-0.005h-11.947v27.307h6.827v-11.947h3.413l1.707 3.413 6.827 8.533h6.827l-3.413-5.12-6.827-6.827zM1172.48 921.6h-3.413v-6.827h8.533c1.885 0 3.413 1.528 3.413 3.413s-1.528 3.413-3.413 3.413v0c-0.769 0.123-1.657 0.193-2.56 0.193s-1.791-0.070-2.656-0.205l0.096 0.012zM1230.507 926.72h13.653v-5.12h-13.653v-6.827h15.36v-3.413h-20.48v27.307h20.48v-5.12h-15.36v-6.827z"></path>
</svg>
