<!-- Generated by IcoMoon.io -->
<svg version="1.1" xmlns="http://www.w3.org/2000/svg" width="1809" height="1024" viewBox="0 0 1809 1024">
<title></title>
<g id="icomoon-ignore">
</g>
<path d="M911.36 467.627c-6.457-8.477-10.345-19.214-10.345-30.859 0-1.152 0.038-2.295 0.113-3.428l-0.008 0.154v-49.493c0-13.653 3.413-25.6 10.24-34.133 6.827-6.827 18.773-11.947 34.133-11.947 17.067 0 29.013 3.413 34.133 10.24 8.533 8.533 11.947 18.773 10.24 29.013v11.947h-27.307v-22.187c0-3.413-3.413-5.12-5.12-6.827-2.817-2.131-6.379-3.413-10.24-3.413v0c-3.861 0-7.423 1.282-10.283 3.444l0.043-0.031c-3.413 0-5.12 3.413-5.12 6.827v71.68l1.707 17.067 6.827 3.413 6.827 1.707c3.413 0 6.827 0 10.24-3.413l3.413-6.827v-23.893h29.013v11.947c0 10.24-1.707 20.48-8.533 30.72-6.827 6.827-17.067 10.24-34.133 10.24s-29.013-3.413-34.133-11.947zM1029.12 467.627c-8.533-6.827-11.947-17.067-11.947-34.133v-51.2c0-13.653 3.413-25.6 11.947-34.133 6.827-5.12 17.067-10.24 34.133-10.24s29.013 5.12 35.84 11.947c6.827 6.827 10.24 17.067 10.24 34.133v51.2c0 13.653-3.413 25.6-10.24 34.133-6.827 6.827-18.773 10.24-34.133 10.24-17.067 0-29.013-3.413-35.84-11.947zM1076.907 455.68l3.413-15.36v-63.147c0-5.12 0-10.24-3.413-15.36l-5.12-3.413c-1.28-0.344-2.75-0.542-4.267-0.542s-2.986 0.198-4.386 0.569l0.119-0.027c-1.026-0.219-2.205-0.345-3.413-0.345s-2.387 0.126-3.524 0.364l0.111-0.020-5.12 3.413c-3.413 5.12-5.12 10.24-3.413 15.36v63.147c0 5.12 0 10.24 3.413 17.067l5.12 3.413c2.272 0.945 4.912 1.495 7.68 1.495s5.408-0.549 7.816-1.544l-0.136 0.050 5.12-5.12zM1143.467 341.333h30.72l22.187 93.867 23.893-95.573h29.013l1.707 138.24h-20.48l-3.413-95.573-22.187 95.573h-17.067l-22.187-95.573-5.12 95.573h-22.187l3.413-136.533zM1285.12 341.333h47.787c27.307 0 40.96 11.947 40.96 37.547s-15.36 37.547-42.667 37.547h-17.067v61.44h-29.013v-136.533zM1326.080 399.36h8.533l6.827-5.12 5.12-15.36-1.707-11.947-1.707-3.413-5.12-3.413c-3.413-1.707-8.533-3.413-11.947-1.707h-11.947v40.96h11.947zM1416.533 341.333h29.013l34.133 136.533h-29.013l-5.12-32.427h-29.013l-6.827 32.427h-27.307l34.133-136.533zM1442.133 430.080l-11.947-58.027-10.24 58.027h22.187zM1503.573 341.333h20.48l39.253 76.8v-76.8h23.893v136.533h-18.773l-39.253-81.92v81.92h-27.307v-136.533zM1643.52 426.667l-32.427-85.333h27.307l20.48 52.907 17.067-54.613h27.307l-32.427 85.333v52.907h-27.307v-51.2zM955.733 537.6v8.533h-22.187v54.613h-11.947v-54.613h-23.893v-8.533h58.027zM1030.827 600.747h-11.947l-6.827-17.067h-32.427l-6.827 17.067h-10.24l29.013-63.147h10.24l29.013 63.147zM983.040 580.267h27.307l-11.947-25.6-1.707-6.827v3.413l-1.707 3.413-11.947 25.6zM1080.32 595.627h5.12c3.676-0.047 7.19-0.668 10.481-1.777l-0.241 0.070 3.413-1.707v-15.36h-13.653v-5.12h22.187v23.893c-5.341 3.515-11.705 5.94-18.555 6.804l-0.219 0.022h-8.533c-5.12 0-10.24 0-15.36-3.413-4.536-1.002-8.538-2.776-12.063-5.195l0.116 0.075-6.827-10.24-3.413-13.653c0-5.12 0-8.533 3.413-13.653 0-3.413 3.413-6.827 6.827-10.24 3.413-1.707 6.827-5.12 11.947-5.12 5.54-2.329 11.979-3.683 18.735-3.683 1.817 0 3.611 0.098 5.377 0.289l-0.219-0.019c4.532 1.122 8.517 2.883 12.099 5.213l-0.152-0.093 5.12 3.413-1.707 3.413h-6.827l-5.12-3.413c-3.476-1.731-7.52-2.94-11.789-3.4l-0.158-0.014c-4.423 0.433-8.473 1.646-12.142 3.503l0.195-0.089-8.533 3.413-5.12 8.533v22.187c0 3.413 3.413 6.827 6.827 8.533 4.558 4.251 10.695 6.861 17.442 6.861 0.468 0 0.934-0.013 1.396-0.037l-0.064 0.003zM1172.48 593.92h32.427v6.827h-40.96v-63.147h8.533v56.32zM1237.333 600.747h-8.533v-63.147h10.24v63.147zM1274.88 537.6v1.707l44.373 47.787v-49.493h8.533v63.147h-8.533l-42.667-47.787v49.493h-8.533v-63.147h5.12zM1399.467 537.6v6.827h-34.133v22.187h27.307v6.827h-27.307v20.48h34.133v6.827h-44.373v-63.147h44.373zM361.813 148.48l440.32 107.52v375.467l-440.32-107.52v-375.467zM332.8 114.347v431.787l496.64 119.467v-426.667l-494.933-122.88z"></path>
<path d="M599.040 865.28l-496.64-121.173v-430.080l496.64 122.88v426.667z"></path>
<path d="M341.333 143.36l433.493 105.813-184.32 160.427-433.493-107.52 184.32-158.72zM332.8 116.053l-230.4 197.973 496.64 122.88 230.4-199.68-494.933-121.173zM626.347 841.387l204.8-175.787-204.8-49.493v225.28z"></path>
</svg>
