<!-- Generated by IcoMoon.io -->
<svg version="1.1" xmlns="http://www.w3.org/2000/svg" width="1809" height="1024" viewBox="0 0 1809 1024">
<title></title>
<g id="icomoon-ignore">
</g>
<path d="M648.533 119.467l119.467 112.64h-221.867v549.547h580.267v-209.92l119.467 112.64v-564.907h-597.333zM1121.28 558.080l-339.627-319.147h339.627v320.853zM1015.467 701.44h-377.173v-368.64h25.6v343.040h351.573v25.6zM727.040 853.333h11.947l-20.48 37.547v23.893h-10.24v-23.893l-20.48-37.547h11.947l13.653 30.72 13.653-29.013zM744.107 916.48l5.12-15.36h23.893l5.12 15.36h10.24l-20.48-63.147h-10.24l-23.893 63.147h10.24zM761.173 868.693l8.533 23.893h-17.067l8.533-23.893zM817.493 890.88l-3.413 8.533c0 5.12 1.707 8.533 6.827 11.947 3.413 3.413 6.827 5.12 13.653 5.12 5.12 0 10.24 0 15.36-5.12l3.413 5.12h11.947l-8.533-11.947c3.413-3.413 5.12-10.24 5.12-17.067h-8.533c0 3.413 0 6.827-3.413 10.24l-11.947-13.653 5.12-3.413 5.12-5.12c1.397-2.107 2.229-4.695 2.229-7.476 0-3.739-1.503-7.126-3.937-9.592l0.001 0.001c-2.616-2.132-5.991-3.424-9.668-3.424-0.201 0-0.402 0.004-0.601 0.012l0.029-0.001c-0.482-0.048-1.041-0.076-1.606-0.076-3.906 0-7.505 1.312-10.381 3.519l0.041-0.030c-3.413 3.413-5.12 6.827-5.12 11.947l1.707 5.12 5.12 8.533c-3.291 1.878-6.105 4.149-8.508 6.798l-0.025 0.029zM844.8 904.533c-2.817 2.131-6.379 3.413-10.24 3.413v0l-6.827-1.707c-2.082-1.573-3.413-4.045-3.413-6.827v0c0-3.413 1.707-6.827 5.12-8.533h1.707l13.653 13.653zM832.853 878.933l-3.413-10.24v-5.12h11.947l1.707 5.12-1.707 5.12-6.827 5.12zM931.84 911.36c-3.413 3.413-8.533 5.12-17.067 5.12l-11.947-3.413c-3.413-1.707-6.827-5.12-8.533-10.24-3.413-3.413-3.413-8.533-3.413-13.653v-5.12l0.005 0.098c-0.045-0.714-0.067-1.433-0.067-2.158 0-5.463 1.283-10.626 3.476-15.006l8.533-8.533c3.413-3.413 8.533-3.413 11.947-3.413l17.067 3.413c5.12 5.12 6.827 10.24 6.827 17.067h-10.24l-3.413-10.24-8.533-1.707c-5.12 0-8.533 0-10.24 3.413-3.413 3.413-5.12 8.533-5.12 15.36v5.12l3.413 15.36 0.025 0.038c2.161 3.078 5.738 5.090 9.784 5.090 0.151 0 0.302-0.003 0.431-0.008 5.12 0 8.533 0 10.24-3.413 3.413-1.707 3.413-3.413 3.413-8.533h10.24c0 6.827-1.707 11.947-6.827 15.36zM994.987 902.827l1.707-17.067v-1.707c0-6.827 0-11.947-3.413-17.067-4.173-7.133-11.765-11.867-20.469-11.947h-0.011c-5.12 0-10.24 0-13.653 3.413-3.413 1.707-6.827 5.12-8.533 10.24-3.413 3.413-3.413 8.533-3.413 15.36v3.413c0 5.12 0 10.24 3.413 15.36 0 5.12 5.12 8.533 8.533 10.24l13.653 3.413c5.12 0 8.533 0 11.947-3.413 5.12-1.707 6.827-6.827 10.24-10.24zM983.040 868.693l3.413 15.36v3.413c0 6.827 0 11.947-3.413 15.36l-10.24 5.12c-0.609 0.11-1.309 0.173-2.025 0.173-4.117 0-7.747-2.082-9.895-5.251l-0.027-0.042-3.413-17.067v-1.707c0-6.827 0-11.947 3.413-17.067l11.947-3.413c3.413 0 6.827 0 10.24 5.12z"></path>
</svg>
