<!-- Generated by IcoMoon.io -->
<svg version="1.1" xmlns="http://www.w3.org/2000/svg" width="1809" height="1024" viewBox="0 0 1809 1024">
<title></title>
<g id="icomoon-ignore">
</g>
<path d="M411.307 360.107c-40.96 0-73.387 29.013-73.387 66.56 0 35.84 34.133 64.853 73.387 64.853 40.96 0 75.093-29.013 75.093-64.853 0-37.547-34.133-66.56-75.093-66.56zM959.147 339.627c0-51.2-22.187-98.987-63.147-136.533-39.253-34.133-93.867-54.613-151.893-54.613-56.32 0-110.933 20.48-151.893 56.32-39.253 34.133-61.44 85.333-61.44 134.827v278.187s426.667-42.667 426.667-278.187zM187.733 708.267c0 35.84 17.067 68.267 44.373 93.867 27.735 24.167 64.165 38.988 104.051 39.253h0.056c40.96 0 78.507-13.653 105.813-39.253 26.27-22.458 43.162-55.222 44.368-91.956l0.005-0.204v-194.56s-298.667 29.013-298.667 192.853zM336.213 742.4c-6.827 0-15.36 0-20.48-5.12-6.827-3.413-11.947-8.533-15.36-15.36-1.707-5.12-3.413-13.653-1.707-18.773 0-6.827 5.12-13.653 10.24-17.067 5.12-6.827 13.653-10.24 20.48-10.24h22.187c6.827 3.413 13.653 8.533 17.067 13.653 4.486 5.518 7.203 12.63 7.203 20.378 0 9.498-4.083 18.042-10.59 23.973l-0.026 0.023-13.653 6.827-15.36 3.413zM638.293 725.333h-29.013v29.013h-11.947v-71.68h46.080v13.653h-32.427v17.067h29.013v13.653zM709.973 720.213c0 6.827 0 13.653-3.413 17.067-4.664 10.155-14.746 17.079-26.445 17.079-0.303 0-0.605-0.005-0.905-0.014l0.044 0.001c-5.12 0-10.24 0-17.067-3.413l-10.24-11.947-3.413-18.773v-3.413c0-6.827 0-13.653 3.413-18.773 4.664-10.155 14.746-17.079 26.445-17.079 0.303 0 0.605 0.005 0.905 0.014l-0.044-0.001c6.827 0 11.947 0 17.067 3.413 3.413 3.413 8.533 8.533 10.24 13.653 3.413 5.12 3.413 11.947 3.413 17.067v5.12zM696.32 716.8c0-8.533-1.707-13.653-5.12-17.067-2.405-4.11-6.797-6.827-11.824-6.827-0.043 0-0.086 0-0.129 0.001h0.007c-5.12 0-8.533 1.707-11.947 6.827l-3.413 17.067v3.413c0 6.827 0 11.947 3.413 17.067 3.413 3.413 6.827 5.12 11.947 5.12s10.24 0 11.947-5.12c3.413-3.413 3.413-10.24 5.12-17.067v-3.413zM759.467 733.867s0-3.413-3.413-5.12l-10.24-5.12c-5.12 0-10.24-3.413-11.947-5.12-8.533-3.413-13.653-10.24-13.653-17.067l3.413-10.24c3.413-3.413 5.12-6.827 10.24-8.533l13.653-1.707 13.653 1.707 10.24 8.533 3.413 11.947h-15.36c0-3.413 0-5.12-3.413-8.533-1.953-1.142-4.3-1.817-6.805-1.817-0.609 0-1.21 0.040-1.798 0.117l0.069-0.007-8.533 1.707-3.413 6.827c0 1.707 0 3.413 3.413 5.12l10.24 5.12c8.533 1.707 15.36 5.12 18.773 8.533 5.12 5.12 6.827 8.533 6.827 15.36s-3.413 10.24-6.827 15.36c-5.12 3.413-11.947 5.12-20.48 5.12-5.12 0-10.24 0-15.36-3.413l-10.24-8.533-3.413-11.947h15.36c0 6.827 5.12 11.947 13.653 11.947 3.413 0 6.827 0 8.533-3.413l3.413-5.12zM839.68 694.613h-22.187v59.733h-15.36v-59.733h-22.187v-13.653h59.733v13.653zM890.88 723.627h-27.307v18.773h34.133v11.947h-51.2v-71.68h51.2v13.653h-34.133v17.067h29.013v11.947zM931.84 727.040h-10.24v27.307h-13.653v-71.68h25.6c10.24 0 17.067 3.413 20.48 6.827 5.12 3.413 6.827 8.533 6.827 17.067 0 3.413 0 8.533-3.413 11.947 0 3.413-5.12 5.12-8.533 6.827l15.36 30.72h-17.067l-13.653-27.307zM921.6 716.8h13.653l8.533-1.707 1.707-8.533-1.707-8.533-10.24-1.707h-11.947v20.48zM1013.76 730.453v25.6h-17.067v-73.387h30.72l13.653 3.413 10.24 8.533 3.413 13.653c0 6.827-3.413 11.947-8.533 17.067-5.12 3.413-11.947 5.12-20.48 5.12h-11.947zM1013.76 718.507h13.653c3.413 0 6.827 0 8.533-3.413l3.413-6.827c0-3.413 0-6.827-3.413-8.533-2.153-2.111-5.105-3.415-8.362-3.415-0.060 0-0.12 0-0.18 0.001h-13.644v20.48zM1107.627 725.333h-29.013v18.773h34.133v11.947h-47.787v-73.387h44.373v13.653h-34.133v17.067h29.013v11.947zM1177.6 696.32h-22.187v59.733h-15.36v-59.733h-22.187v-13.653h59.733v13.653zM1228.8 725.333h-27.307v18.773h34.133v11.947h-49.493v-73.387h49.493v13.653h-34.133v17.067h27.307v11.947zM1271.467 728.747h-11.947v27.307h-17.067v-73.387h29.013c8.533 0 15.36 3.413 18.773 6.827 5.12 3.413 6.827 8.533 6.827 17.067l-1.707 11.947-10.24 6.827 17.067 30.72h-17.067l-13.653-27.307zM1259.52 716.8h11.947l8.533-1.707 3.413-8.533c0-3.413 0-6.827-3.413-8.533l-8.533-1.707h-11.947v20.48zM1346.56 737.28l-1.707-6.827-11.947-5.12c-5.12 0-8.533-3.413-11.947-5.12-8.533-3.413-11.947-10.24-11.947-17.067 0-5.12 0-8.533 3.413-10.24 0-3.413 5.12-6.827 8.533-8.533l13.653-1.707 15.36 1.707 8.533 8.533 3.413 11.947h-15.36c0-3.413 0-5.12-3.413-8.533-1.953-1.142-4.3-1.817-6.805-1.817-0.609 0-1.21 0.040-1.798 0.117l0.069-0.007-8.533 1.707-3.413 6.827 5.12 5.12 10.24 5.12c8.533 1.707 13.653 5.12 17.067 8.533 5.12 5.12 6.827 8.533 6.827 15.36s-1.707 10.24-6.827 15.36c-5.12 3.413-11.947 5.12-18.773 5.12s-11.947 0-17.067-3.413l-10.24-8.533-3.413-11.947h17.067c0 6.827 3.413 11.947 13.653 11.947 3.413 0 5.12 0 8.533-3.413l1.707-5.12z"></path>
</svg>
