<!-- Generated by IcoMoon.io -->
<svg version="1.1" xmlns="http://www.w3.org/2000/svg" width="1024" height="1024" viewBox="0 0 1024 1024">
<title>twitter-icon</title>
<g id="icomoon-ignore">
</g>
<path d="M1024 194.56c-35.84 15.36-76.8 25.6-122.88 30.72 43.118-25.113 75.689-64.322 91.731-111.199l0.429-1.441c-40.96 25.6-81.92 40.96-133.12 51.2-38.435-41.223-93.057-66.923-153.682-66.923-115.936 0-209.92 93.984-209.92 209.92 0 16.465 1.896 32.488 5.481 47.861l-0.279-1.418c-174.080-10.24-327.68-92.16-430.080-220.16-17.988 30.312-28.619 66.821-28.619 105.813 0 73.254 37.522 137.744 94.394 175.3l0.785 0.487c-35.754-0.339-69.229-9.788-98.309-26.132l1.029 0.532c0 102.4 71.68 189.44 168.96 204.8-17.684 5.527-38.018 8.711-59.095 8.711-13.505 0-26.704-1.307-39.479-3.802l1.294 0.211c30.72 87.040 102.4 148.48 199.68 148.48-70.796 56.281-161.49 90.297-260.128 90.297-18.398 0-36.519-1.183-54.292-3.478l2.1 0.221c92.16 61.44 204.8 87.040 322.56 87.040 0.105 0 0.229 0 0.353 0 328.013 0 593.92-265.907 593.92-593.92 0-7.202-0.128-14.374-0.382-21.514l0.029 1.034c46.080-30.72 76.8-66.56 107.52-107.52z"></path>
</svg>
